# xmcd CD database file
#
# Track frame offsets:
#	150
#	5259
#	16635
#	39080
#	71493
#	100845
#	124028
#	150036
#	223731
#	282786
#	325419
#
# Disc length: 4421 seconds
#
# Revision: 0
# Processed by: cddbd v1.5.2PL0 Copyright (c) Steve Scherf et al.
# Submitted via: CDex 1.51
#
DISCID=7d11430b
DTITLE=Abraham-Hicks - 10-20-07 - Washington, DC
DYEAR=2007
DGENRE=New Age
TTITLE0=Abraham-Hicks Publications
TTITLE1=Prebodies, we're Source Energy
TTITLE2=You know what's best for you
TTITLE3=Law of Attraction and growth
TTITLE4=Life offers you its buffet
TTITLE5=Align self vs. change others? 
TTITLE6=From Inner Being's standpoint?
TTITLE7=Teen daughter has quit school
TTITLE8=If patients envisioned health?
TTITLE9=Humor is laughing and crying?
TTITLE10=Washington, DC Workshop close
EXTD=YEAR: 2007
EXTT0=
EXTT1=
EXTT2=
EXTT3=
EXTT4=
EXTT5=
EXTT6=
EXTT7=
EXTT8=
EXTT9=
EXTT10=
PLAYORDER=
